<?xml version="1.0" encoding="UTF-8" standalone="no"?>
<!DOCTYPE svg PUBLIC "-//W3C//DTD SVG 1.1//EN"
 "http://www.w3.org/Graphics/SVG/1.1/DTD/svg11.dtd">
<!-- Generated by graphviz version 2.40.1 (20161225.0304)
 -->
<!-- Title: Workflow Pages: 1 -->
<svg width="492pt" height="569pt"
 viewBox="0.00 0.00 492.07 569.00" xmlns="http://www.w3.org/2000/svg" xmlns:xlink="http://www.w3.org/1999/xlink">
<g id="graph0" class="graph" transform="scale(1 1) rotate(0) translate(4 565)">
<title>Workflow</title>
<polygon fill="#ffffff" stroke="transparent" points="-4,4 -4,-565 488.0684,-565 488.0684,4 -4,4"/>
<text text-anchor="middle" x="242.0342" y="-542.6" font-family="Courier,monospace" font-size="18.00" fill="#000000">InitialSetup</text>
<g id="clust1" class="cluster">
<title>cluster_workflow_box_outer</title>
<polygon fill="none" stroke="#000000" stroke-width="2" points="8,-8 8,-527 476.0684,-527 476.0684,-8 8,-8"/>
</g>
<g id="clust2" class="cluster">
<title>cluster_workflow_box_inner</title>
<polygon fill="none" stroke="#ffffff" stroke-width="2" points="16,-16 16,-519 468.0684,-519 468.0684,-16 16,-16"/>
</g>
<!-- Check_Homebrew -->
<g id="node1" class="node">
<title>Check_Homebrew</title>
<polygon fill="#ccffcc" stroke="#000000" points="129.0171,-466 129.0171,-510 355.0513,-510 355.0513,-466 129.0171,-466"/>
<text text-anchor="middle" x="242.0342" y="-494.8" font-family="Courier,monospace" font-size="14.00" fill="#000000">Check_Homebrew</text>
<polyline fill="none" stroke="#000000" points="129.0171,-488 355.0513,-488 "/>
<text text-anchor="middle" x="242.0342" y="-472.8" font-family="Courier,monospace" font-size="14.00" fill="#000000">Check for homebrew on OSX</text>
</g>
<!-- Check_Java -->
<g id="node2" class="node">
<title>Check_Java</title>
<polygon fill="#ccffcc" stroke="#000000" points="129.0171,-403 129.0171,-447 355.0513,-447 355.0513,-403 129.0171,-403"/>
<text text-anchor="middle" x="242.0342" y="-431.8" font-family="Courier,monospace" font-size="14.00" fill="#000000">Check_Java</text>
<polyline fill="none" stroke="#000000" points="129.0171,-425 355.0513,-425 "/>
<text text-anchor="middle" x="242.0342" y="-409.8" font-family="Courier,monospace" font-size="14.00" fill="#000000">Check for homebrew on OSX</text>
</g>
<!-- Get_Local_Path -->
<g id="node3" class="node">
<title>Get_Local_Path</title>
<polygon fill="#ccffcc" stroke="#000000" points="49.2041,-340 49.2041,-384 434.8643,-384 434.8643,-340 49.2041,-340"/>
<text text-anchor="middle" x="242.0342" y="-368.8" font-family="Courier,monospace" font-size="14.00" fill="#000000">Get_Local_Path</text>
<polyline fill="none" stroke="#000000" points="49.2041,-362 434.8643,-362 "/>
<text text-anchor="middle" x="242.0342" y="-346.8" font-family="Courier,monospace" font-size="14.00" fill="#000000">get local path for current working directory</text>
</g>
<!-- Create_BIN_directory -->
<g id="node4" class="node">
<title>Create_BIN_directory</title>
<polygon fill="#ccffcc" stroke="#000000" points="24,-277 24,-321 460.0684,-321 460.0684,-277 24,-277"/>
<text text-anchor="middle" x="242.0342" y="-305.8" font-family="Courier,monospace" font-size="14.00" fill="#000000">Create_BIN_directory</text>
<polyline fill="none" stroke="#000000" points="24,-299 460.0684,-299 "/>
<text text-anchor="middle" x="242.0342" y="-283.8" font-family="Courier,monospace" font-size="14.00" fill="#000000">create a directory where binary executables reside</text>
</g>
<!-- Download_YesWorkflow -->
<g id="node5" class="node">
<title>Download_YesWorkflow</title>
<polygon fill="#ccffcc" stroke="#000000" points="61.8062,-214 61.8062,-258 422.2622,-258 422.2622,-214 61.8062,-214"/>
<text text-anchor="middle" x="242.0342" y="-242.8" font-family="Courier,monospace" font-size="14.00" fill="#000000">Download_YesWorkflow</text>
<polyline fill="none" stroke="#000000" points="61.8062,-236 422.2622,-236 "/>
<text text-anchor="middle" x="242.0342" y="-220.8" font-family="Courier,monospace" font-size="14.00" fill="#000000">download YesWorkflow if it is not in path</text>
</g>
<!-- Download_GraphViz -->
<g id="node6" class="node">
<title>Download_GraphViz</title>
<polygon fill="#ccffcc" stroke="#000000" points="74.4082,-151 74.4082,-195 409.6602,-195 409.6602,-151 74.4082,-151"/>
<text text-anchor="middle" x="242.0342" y="-179.8" font-family="Courier,monospace" font-size="14.00" fill="#000000">Download_GraphViz</text>
<polyline fill="none" stroke="#000000" points="74.4082,-173 409.6602,-173 "/>
<text text-anchor="middle" x="242.0342" y="-157.8" font-family="Courier,monospace" font-size="14.00" fill="#000000">download GraphViz if it is not in path</text>
</g>
<!-- Download_librsvg -->
<g id="node7" class="node">
<title>Download_librsvg</title>
<polygon fill="#ccffcc" stroke="#000000" points="145.8198,-88 145.8198,-132 338.2485,-132 338.2485,-88 145.8198,-88"/>
<text text-anchor="middle" x="242.0342" y="-116.8" font-family="Courier,monospace" font-size="14.00" fill="#000000">Download_librsvg</text>
<polyline fill="none" stroke="#000000" points="145.8198,-110 338.2485,-110 "/>
<text text-anchor="middle" x="242.0342" y="-94.8" font-family="Courier,monospace" font-size="14.00" fill="#000000">download rsvg&#45;convert</text>
</g>
<!-- Check_Alias -->
<g id="node8" class="node">
<title>Check_Alias</title>
<polygon fill="#ccffcc" stroke="#000000" points="141.6191,-25 141.6191,-69 342.4492,-69 342.4492,-25 141.6191,-25"/>
<text text-anchor="middle" x="242.0342" y="-53.8" font-family="Courier,monospace" font-size="14.00" fill="#000000">Check_Alias</text>
<polyline fill="none" stroke="#000000" points="141.6191,-47 342.4492,-47 "/>
<text text-anchor="middle" x="242.0342" y="-31.8" font-family="Courier,monospace" font-size="14.00" fill="#000000">ensure yw alias exists</text>
</g>
</g>
</svg>
